<?xml version="1.0" standalone="no"?><!DOCTYPE svg PUBLIC "-//W3C//DTD SVG 1.1//EN" "http://www.w3.org/Graphics/SVG/1.1/DTD/svg11.dtd"><svg t="1581663485157" class="icon" viewBox="0 0 1024 1024" version="1.1" xmlns="http://www.w3.org/2000/svg" p-id="3180" width="200" height="200" xmlns:xlink="http://www.w3.org/1999/xlink"><defs><style type="text/css"></style></defs><path d="M160 75.8v872.4c0 6.6 5.4 12 12 12h680.1c6.6 0 12-5.4 12-12V75.8c0-6.6-5.4-12-12-12H172c-6.6 0-12 5.4-12 12z m64 814.4V197.8c0-3.3 2.7-6 6-6h564.1c3.3 0 6 2.7 6 6v692.4c0 3.3-2.7 6-6 6H230c-3.3 0-6-2.7-6-6z" p-id="3181" fill="#555555"></path><path d="M294.1 320h52c3.3 0 6-2.7 6-6v-52c0-3.3-2.7-6-6-6h-52c-3.3 0-6 2.7-6 6v52c0 3.3 2.7 6 6 6zM422.1 320h308c3.3 0 6-2.7 6-6v-52c0-3.3-2.7-6-6-6h-308c-3.3 0-6 2.7-6 6v52c0 3.3 2.7 6 6 6zM294.1 447.8h52c3.3 0 6-2.7 6-6v-52c0-3.3-2.7-6-6-6h-52c-3.3 0-6 2.7-6 6v52c0 3.3 2.7 6 6 6zM422.1 447.8h308c3.3 0 6-2.7 6-6v-52c0-3.3-2.7-6-6-6h-308c-3.3 0-6 2.7-6 6v52c0 3.3 2.7 6 6 6zM294.1 576.1h52c3.3 0 6-2.7 6-6v-52c0-3.3-2.7-6-6-6h-52c-3.3 0-6 2.7-6 6v52c0 3.3 2.6 6 6 6zM422.1 576.1h308c3.3 0 6-2.7 6-6v-52c0-3.3-2.7-6-6-6h-308c-3.3 0-6 2.7-6 6v52c0 3.3 2.7 6 6 6zM294.1 704h52c3.3 0 6-2.7 6-6v-52c0-3.3-2.7-6-6-6h-52c-3.3 0-6 2.7-6 6v52c0 3.3 2.6 6 6 6zM422.1 704h308c3.3 0 6-2.7 6-6v-52c0-3.3-2.7-6-6-6h-308c-3.3 0-6 2.7-6 6v52c0 3.3 2.7 6 6 6zM294.1 831.8h52c3.3 0 6-2.7 6-6v-52c0-3.3-2.7-6-6-6h-52c-3.3 0-6 2.7-6 6v52c0 3.3 2.6 6 6 6zM422.1 831.8h308c3.3 0 6-2.7 6-6v-52c0-3.3-2.7-6-6-6h-308c-3.3 0-6 2.7-6 6v52c0 3.3 2.7 6 6 6z" p-id="3182" fill="#555555"></path></svg>