<?xml version="1.0" standalone="no"?><!DOCTYPE svg PUBLIC "-//W3C//DTD SVG 1.1//EN" "http://www.w3.org/Graphics/SVG/1.1/DTD/svg11.dtd"><svg t="1581662459402" class="icon" viewBox="0 0 1024 1024" version="1.1" xmlns="http://www.w3.org/2000/svg" p-id="1476" width="200" height="200" xmlns:xlink="http://www.w3.org/1999/xlink"><defs><style type="text/css"></style></defs><path d="M262.1 639.7h52c3.3 0 6-2.7 6-6V197.6c0-3.3-2.7-6-6-6h-52c-3.3 0-6 2.7-6 6v436.2c0 3.3 2.6 5.9 6 5.9zM261.8 831.7h52c3.3 0 6-2.7 6-6V709.8c0-3.3-2.7-6-6-6h-52c-3.3 0-6 2.7-6 6v115.9c0 3.3 2.7 6 6 6z" p-id="1477" fill="#555555"></path><path d="M639.9 139.8v110c0 3.3-2.7 6-6 6H454.1c-3.3 0-6-2.7-6-6v-174c0-6.6-5.4-12-12-12H140c-6.6 0-12 5.4-12 12v872c0 6.6 5.4 12 12 12h744.1c6.6 0 12-5.4 12-12v-808c0-6.6-5.4-12-12-12H651.9c-6.6 0-12 5.3-12 12zM378 895.7H198c-3.3 0-6-2.7-6-6v-756c0-3.3 2.7-6 6-6h180.1c3.3 0 6 2.7 6 6l-0.1 756c0 3.3-2.6 6-6 6z m255.9-511.9H518.1c-3.3 0-6 2.7-6 6v52c0 3.3 2.7 6 6 6h115.8c3.3 0 6 2.7 6 6v52.1c0 3.3-2.7 6-6 6H518c-3.3 0-6 2.7-6 6v52c0 3.3 2.7 6 6 6h115.9c3.3 0 6 2.7 6 6v51.8c0 3.3-2.7 6-6 6H518.1c-3.3 0-6 2.7-6 6v52c0 3.3 2.7 6 6 6h115.8c3.3 0 6 2.7 6 6v180c0 3.3-2.7 6-6 6H454.1c-3.3 0-6-2.7-6-6v-564c0-3.3 2.7-6 6-6h179.8c3.3 0 6 2.7 6 6v52c0 3.4-2.7 6.1-6 6.1z m76.3 511.9c-3.3 0-6-2.7-6-6v-634h-0.3v-58c0-3.3 2.7-6 6-6h116.3c3.3 0 6 2.7 6 6v52c0 3.3-2.7 6-6 6h-52c-3.3 0-6 2.7-6 6v115.8c0 3.3 2.7 6 6 6h52c3.3 0 6 2.7 6 6V442c0 3.3-2.7 6-6 6h-52c-3.3 0-6 2.7-6 6v115.8c0 3.3 2.7 6 6 6h52c3.3 0 6 2.7 6 6v51.9c0 3.3-2.7 6-6 6h-52c-3.3 0-6 2.7-6 6v115.8c0 3.3 2.7 6 6 6h52c3.3 0 6 2.7 6 6v116.1c0 3.3-2.7 6-6 6h-116z" p-id="1478" fill="#555555"></path></svg>