<?xml version="1.0" standalone="no"?><!DOCTYPE svg PUBLIC "-//W3C//DTD SVG 1.1//EN" "http://www.w3.org/Graphics/SVG/1.1/DTD/svg11.dtd"><svg t="1580619338704" class="icon" viewBox="0 0 1024 1024" version="1.1" xmlns="http://www.w3.org/2000/svg" p-id="3914" width="200" height="200" xmlns:xlink="http://www.w3.org/1999/xlink"><defs><style type="text/css"></style></defs><path d="M512 42.666667C252.789333 42.666667 42.666667 252.8 42.666667 512c0 259.210667 210.122667 469.333333 469.333333 469.333333s469.333333-210.122667 469.333333-469.333333C981.333333 252.8 771.210667 42.666667 512 42.666667z m0 853.333333c-212.074667 0-384-171.914667-384-384 0-212.074667 171.925333-384 384-384s384 171.925333 384 384c0 212.085333-171.925333 384-384 384z m158.165333-286.165333a42.666667 42.666667 0 0 1-60.330666 60.341333l-128-128A42.666667 42.666667 0 0 1 469.333333 512V256a42.666667 42.666667 0 0 1 85.333334 0v238.336l115.498666 115.498667z" p-id="3915" fill="#555555"></path></svg>