<?xml version="1.0" standalone="no"?><!DOCTYPE svg PUBLIC "-//W3C//DTD SVG 1.1//EN" "http://www.w3.org/Graphics/SVG/1.1/DTD/svg11.dtd"><svg t="1581662951899" class="icon" viewBox="0 0 1024 1024" version="1.1" xmlns="http://www.w3.org/2000/svg" p-id="2601" width="200" height="200" xmlns:xlink="http://www.w3.org/1999/xlink"><defs><style type="text/css"></style></defs><path d="M857.2 191.8l-52-0.1c-3.3 0-6-2.7-6-6v-51.9c0-3.3-2.7-6-6-6h-52c-3.3 0-6-2.7-6-6v-52c0-3.3-2.7-6-6-6H165c-3.3 0-6 2.7-6 6v884.4c0 3.3 2.7 6 6 6h692.1c3.3 0 6-2.7 6-6V197.8c0.1-3.3-2.6-6-5.9-6z m-64 704.5H229c-3.3 0-6-2.7-6-6V133.9c0-3.3 2.7-6 6-6h436.1c3.3 0 6 2.7 6 6v116c0 3.3 2.7 6 6 6l116 0.1c3.3 0 6 2.7 6 6v628.3c0.1 3.3-2.6 6-5.9 6z" p-id="2602" fill="#555555"></path><path d="M601.9 757.8L479.4 423.6c-2.1-5.8-7.8-9.8-14-9.8h-35.2c-6.2 0-11.8 3.9-14 9.8L293.7 757.8c-1.7 4.6-1 9.7 1.8 13.7s7.3 6.4 12.2 6.4h45.1c6.4 0 12-4 14.1-10.1l20.2-59h121.5l20.2 59c2.1 6 7.7 10.1 14.1 10.1H588c4.9 0 9.4-2.4 12.2-6.4 2.7-4 3.3-9.1 1.7-13.7z m-153-225.6l38.3 112.1h-77.7l39.4-112.1zM597.1 385.9h-52c-3.3 0-6 2.7-6 6v52c0 3.3 2.7 6 6 6h52c3.3 0 6 2.7 6 6V508c0 3.3 2.7 6 6 6h52c3.3 0 6-2.7 6-6v-52.1c0-3.3 2.7-6 6-6h52c3.3 0 6-2.7 6-6v-52c0-3.3-2.7-6-6-6h-52c-3.3 0-6-2.7-6-6V328c0-3.3-2.7-6-6-6h-52c-3.3 0-6 2.7-6 6v51.9c0 3.3-2.7 6-6 6z" p-id="2603" fill="#555555"></path></svg>