<?xml version="1.0" standalone="no"?><!DOCTYPE svg PUBLIC "-//W3C//DTD SVG 1.1//EN" "http://www.w3.org/Graphics/SVG/1.1/DTD/svg11.dtd"><svg t="1581662646089" class="icon" viewBox="0 0 1024 1024" version="1.1" xmlns="http://www.w3.org/2000/svg" p-id="1896" width="200" height="200" xmlns:xlink="http://www.w3.org/1999/xlink"><defs><style type="text/css"></style></defs><path d="M262 255.8h244c3.3 0 6-2.7 6-6v-52c0-3.3-2.7-6-6-6H262c-3.3 0-6 2.7-6 6v52c0 3.3 2.7 6 6 6zM256 378c0 3.3 2.7 6 6 6h244c3.3 0 6-2.7 6-6v-52c0-3.3-2.7-6-6-6H262c-3.3 0-6 2.7-6 6v52zM640.1 506.2v-52c0-3.3-2.7-6-6-6h-372c-3.3 0-6 2.7-6 6v52c0 3.3 2.7 6 6 6h372c3.3 0 6-2.7 6-6zM511.1 582c0-3.3-2.7-6-6-6h-243c-3.3 0-6 2.7-6 6v52c0 3.3 2.7 6 6 6h243c3.3 0 6-2.7 6-6v-52zM262.1 767.9h243c3.3 0 6-2.7 6-6v-52c0-3.3-2.7-6-6-6h-243c-3.3 0-6 2.7-6 6v52c0 3.3 2.6 6 6 6zM1015.5 498.2L896.7 379.4c-4.7-4.7-12.3-4.7-17 0L573.2 686c-0.9 0.9-1.5 2.1-1.7 3.4l-19.2 135.1c-0.5 3.7 2.5 7 6.3 6.8l146.6-8c1.5-0.1 2.9-0.7 3.9-1.7l306.4-306.4c4.7-4.7 4.7-12.3 0-17z m-86.2 12.7L711.8 728.4c-2.3 2.3-6.1 2.3-8.5 0l-36.8-36.8c-2.3-2.3-2.3-6.1 0-8.5L884 465.7c2.3-2.3 6.1-2.3 8.5 0l36.8 36.8c2.3 2.3 2.3 6.1 0 8.4z" p-id="1897" fill="#555555"></path><path d="M826.2 831.7h-52c-3.3 0-6 2.7-6 6v52c0 3.3-2.7 6-6 6l-564.2-0.1c-3.3 0-6-2.7-6-6V133.9c0-3.3 2.7-6 6-6h378.1v186c0 3.3 2.7 6 6 6h180.1c3.3 0 6 2.7 6 6l-0.1 51.8c0 3.3 2.7 6 6 6H826c3.3 0 6-2.7 6-6l-0.8-116.4c0-3.3-2.7-6-6-6h-57v0.6h-0.2v-58c0-3.3-2.7-6-6-6h-58v-58c0-3.3-2.7-6-6-6h-58v-58c0-3.3-2.7-6-6-6H140c-6.6 0-12 5.4-12 12v871.6c0 6.6 5.4 12 12 12l680.1 0.2c6.6 0 12-5.4 12-12v-110c0.1-3.3-2.6-6-5.9-6z" p-id="1898" fill="#555555"></path></svg>