<?xml version="1.0" standalone="no"?><!DOCTYPE svg PUBLIC "-//W3C//DTD SVG 1.1//EN" "http://www.w3.org/Graphics/SVG/1.1/DTD/svg11.dtd"><svg t="1581542015689" class="icon" viewBox="0 0 1024 1024" version="1.1" xmlns="http://www.w3.org/2000/svg" p-id="2077" width="200" height="200" xmlns:xlink="http://www.w3.org/1999/xlink"><defs><style type="text/css"></style></defs><path d="M384 426.7h-85.3c0-117.6 95.7-213.3 213.3-213.3v85.3c-70.6 0-128 57.4-128 128zM384 853.3h256v85.3H384z" p-id="2078" fill="#555555"></path><path d="M682.7 810.7H341.3v-88.8c-104.5-60.6-170.7-173.6-170.7-295.3 0-188.2 153.1-341.3 341.3-341.3s341.3 153.1 341.3 341.3c0 121.6-66.2 234.7-170.7 295.3v88.8z m-256-85.4h170.7v-56.1l24.3-11.6c88.9-42.2 146.3-133 146.3-231 0-141.2-114.8-256-256-256s-256 114.8-256 256c0 98 57.4 188.8 146.3 231l24.3 11.6v56.1z" p-id="2079" fill="#555555"></path></svg>